<svg width="257" height="48" viewBox="0 0 257 48" xmlns="http://www.w3.org/2000/svg"><path d="M98.942 18.052l.6-2.308H82.46l.831-3.093h14.544c1.523 0 2.816-1.016 3.232-2.494l.6-2.308H84.583l.785-3.047h14.59c1.523 0 2.816-1.016 3.231-2.494l.6-2.308H84.4c-1.478 0-2.817 1.016-3.186 2.447l-4.848 18.052h19.391c1.478 0 2.817-.97 3.186-2.447zM237.312 0a3.366 3.366 0 00-3.231 2.447l-4.802 18.052h19.345c1.524 0 2.817-.97 3.232-2.447l.6-2.308h-17.082l.785-3.093h14.543c1.524 0 2.863-1.016 3.232-2.494l.646-2.308h-17.129l.831-3.047h14.59a3.3 3.3 0 003.186-2.494l.6-2.308h-19.345zM102.544 20.5c1.524 0 2.863-.97 3.232-2.448l3.047-11.357 8.634 13.804h2.262c1.478 0 2.817-.97 3.186-2.447L127.752 0h-2.262a3.366 3.366 0 00-3.232 2.447l-3.001 11.312L110.623 0h-2.262c-1.524 0-2.863 1.016-3.232 2.447l-4.802 18.052h2.216zm48.663-1.801c.97 1.246 2.4 1.8 4.294 1.8h13.343c1.524 0 2.816-.97 3.186-2.447l2.77-10.203h-8.772c-1.524 0-2.817 1.016-3.232 2.493l-.6 2.309h6.51l-.647 2.262c-.092.462-.554.83-1.016.83h-10.25c-1.292 0-1.8-.553-1.477-1.707L157.3 6.51c.324-1.154 1.109-1.708 2.401-1.708h13.343a3.3 3.3 0 003.186-2.494L176.876 0h-15.882c-1.893 0-3.647.6-5.263 1.847-1.662 1.246-2.724 2.77-3.186 4.663l-2.031 7.526c-.508 1.846-.231 3.416.692 4.663zm50.74-16.852C201.209.6 199.962 0 198.254 0h-13.62c-1.708 0-3.232.6-4.617 1.847-1.431 1.246-2.4 2.724-2.862 4.478L173.368 20.5h2.262c1.524 0 2.816-.97 3.232-2.447l1.431-5.401h15.605l-2.077 7.848h2.216c1.524 0 2.816-.97 3.232-2.447l3.093-11.727c.462-1.754.37-3.232-.415-4.478zm-4.34 4.478l-.415 1.524H181.54l.415-1.524c.277-1.015.785-1.523 1.431-1.523h13.574c.693 0 .924.508.647 1.523zM229.187 0c-.923 0-1.754.37-2.4 1.016l-10.527 10.85L211.09 0h-2.448a3.366 3.366 0 00-3.232 2.447l-4.801 18.052h2.216c1.524 0 2.816-.97 3.186-2.447l2.724-10.018 5.263 12.188 11.82-12.188-3.325 12.465h2.216c1.524 0 2.817-.97 3.232-2.447L232.742 0h-3.555zM130.2 7.849c-1.524 0-2.817 1.016-3.232 2.493l-2.724 10.157h15.882c1.847 0 3.602-.554 5.218-1.8 1.615-1.247 2.677-2.817 3.185-4.663l1.986-7.572c.507-1.847.277-3.37-.693-4.617C148.851.6 147.421 0 145.573 0h-15.836l-1.293 4.802h15.883c1.246 0 1.708.554 1.385 1.662l-1.985 7.572c-.324 1.154-1.062 1.708-2.309 1.708h-11.127l2.124-7.895h-2.216zM115.1 39.799a3.366 3.366 0 003.232-2.448l.6-2.354h-17.082l.83-3.048h14.544c1.524 0 2.863-1.015 3.232-2.447l.6-2.354h-19.345a3.366 3.366 0 00-3.232 2.447L93.68 47.647h19.298c1.524 0 2.863-.97 3.232-2.447l.647-2.308h-17.13l.832-3.094H115.1zm31.073-10.804c-.74-1.2-1.986-1.847-3.74-1.847H128.86c-1.662 0-3.278.646-4.663 1.847a8.945 8.945 0 00-2.817 4.478l-3.786 14.174h2.217c1.523 0 2.862-.97 3.232-2.447l1.43-5.402h15.652l-2.123 7.85h2.216c1.523 0 2.862-.97 3.232-2.448l3.14-11.727c.46-1.708.322-3.232-.416-4.478zm-4.387 4.478l-.415 1.524h-15.605l.415-1.524c.277-1.016.739-1.524 1.385-1.524h13.62c.647 0 .877.508.6 1.524zm-55.496 1.524c-1.523 0-2.816 1.015-3.232 2.493l-.6 2.308h6.51l-.6 2.263c-.092.508-.554.83-1.062.83h-10.25c-1.292 0-1.754-.553-1.477-1.708l1.985-7.525c.323-1.154 1.155-1.709 2.401-1.709H93.31c1.478 0 2.817-1.015 3.186-2.447l.646-2.354H81.26c-1.893 0-3.601.646-5.264 1.847-1.615 1.246-2.677 2.77-3.185 4.663l-2.032 7.525c-.508 1.847-.23 3.417.739 4.664.97 1.246 2.355 1.8 4.248 1.8h13.343c1.523 0 2.862-.97 3.232-2.447l2.724-10.203H86.29zm83.937-7.85h-19.945l-5.495 20.5h4.802l4.202-15.698h14.866c.877 0 1.2.416.831 1.616-.323 1.247-1.154 1.432-1.985 1.432h-9.834a3.3 3.3 0 00-3.186 2.493l-.6 2.308h4.248l4.94 7.85h6.556l-4.987-7.85h1.847c1.847 0 3.74.139 4.987-.97 1.339-1.292 2.216-2.908 2.724-4.8.508-1.848.415-3.417-.185-4.71-.693-1.431-1.985-2.17-3.786-2.17zM65.792 11.913H9.603l1.108-4.202C11.911 3.186 16.067 0 20.776 0h48.202l-3.186 11.912zm-14.359 5.956l-4.201 15.605c-.37 1.339-1.57 2.262-3.001 2.262H15.929l1.015-3.6c.37-1.386 1.616-2.355 3.001-2.355H39.43c1.431 0 2.632-.924 3.047-2.263l2.54-9.65H15.929c-4.664 0-8.773 3.186-10.02 7.757L0 47.647h48.247c4.664 0 8.773-3.14 10.02-7.664l5.909-22.115H51.433z" fill="#FEFEFE" fill-rule="nonzero"/></svg>