<svg width="289" height="46" viewBox="0 0 289 46" xmlns="http://www.w3.org/2000/svg"><g fill="#FEFEFE" fill-rule="nonzero"><path d="M34.751 15.245c-.568 0-1.042.379-1.042.947 0 .284.19.473.284.663-1.136.947-3.408 1.515-4.45.19-.757-.948-.852-1.99-.757-2.747.094.095.189.095.189.095a1.05 1.05 0 001.042-1.042c0-.473-.474-.947-1.042-.947-.473 0-.947.474-.947.947 0 .379.19.758.474.852-1.516 1.42-3.977 1.894-5.587.38a6.796 6.796 0 01-1.8-3.126c.569-.094.948-.568.948-1.136s-.474-1.136-1.042-1.136c-.663 0-1.136.568-1.136 1.136s.379 1.042.947 1.136c-1.231 3.22-1.989 3.883-4.261 4.072-1.989.19-3.03-.947-3.314-1.23.378-.19.568-.569.568-.948 0-.473-.474-.947-.947-.947-.568 0-1.042.474-1.042.947a1.05 1.05 0 001.042 1.042c-.095 2.462-1.326 2.935-2.178 3.314-.947.284-3.03-.758-3.03-.758.284-.094.379-.378.379-.662 0-.569-.38-.947-.853-.947-.568 0-.947.378-.947.947 0 .473.38.852.947.852h.19s.379.852.852 2.083c2.84.095 4.072-.568 5.113-2.651 2.652 1.23 5.019.757 7.007-1.705 1.705 2.367 5.303 2.652 7.102 1.326.568 2.178 3.03 2.462 3.03 2.462s-.663 1.894-1.231 3.125c-.757-.663-5.87-1.231-8.143-1.231-2.273 0-10.984.473-10.7 3.598.284 5.113 15.718 3.314 15.718 3.314l-.378-.663s-5.019.19-6.345.19c-1.325 0-7.385-.758-7.67-2.178-.378-1.515 5.303-2.178 7.954-2.273 2.652-.19 7.954.19 10.416 1.136 1.326.568 1.515-.473 1.515-.473l2.84-6.06h.285c.568 0 .947-.379.947-.947s-.379-.947-.947-.947z"/><path d="M22.536 1.894c5.87.19 11.552 1.23 16.95 3.22-.285 8.332-.663 14.487-1.326 19.126-.758 4.83-1.705 8.238-3.125 10.795-1.23 2.273-2.935 3.788-5.303 5.208-2.367 1.326-5.302 2.367-9.09 3.598-3.693-1.23-6.628-2.272-8.995-3.598-2.367-1.326-3.977-2.935-5.303-5.208-1.42-2.462-2.367-5.965-3.03-10.795-.663-4.64-1.136-10.7-1.42-19.127 5.87-2.083 12.025-3.22 18.37-3.22h2.272zM21.21 0h-.946C14.204 0 7.29.947 0 3.882c.947 35.509 5.019 36.55 20.737 42.042v-.094c15.624-5.398 19.695-6.534 20.642-42.042A55.346 55.346 0 0021.21 0zM51.795 13.73h2.935v4.166c1.231-1.61 2.557-2.84 3.977-3.598 1.42-.757 3.03-1.23 4.735-1.23 1.704 0 3.22.473 4.64 1.325 1.325.947 2.272 2.083 2.935 3.598.663 1.515.947 3.788.947 6.912v11.931h-2.935V25.85c0-2.746-.19-4.45-.38-5.397-.378-1.515-1.04-2.651-1.988-3.409-.947-.852-2.272-1.23-3.787-1.23-1.8 0-3.41.662-4.924 1.798-1.42 1.231-2.367 2.652-2.746 4.45-.284 1.137-.474 3.22-.474 6.345v8.427h-2.935V13.73zM88.345 13.067c3.598 0 6.534 1.326 8.901 3.882 2.178 2.368 3.22 5.208 3.22 8.428 0 3.22-1.137 6.06-3.41 8.427-2.272 2.462-5.113 3.693-8.71 3.693-3.504 0-6.44-1.231-8.712-3.693-2.178-2.367-3.314-5.208-3.314-8.427 0-3.22 1.041-6.06 3.22-8.333 2.272-2.651 5.302-3.977 8.805-3.977zm0 2.936c-2.462 0-4.545.946-6.344 2.745-1.8 1.894-2.651 4.072-2.651 6.629 0 1.704.378 3.314 1.23 4.734a8.347 8.347 0 003.22 3.314c1.42.853 2.935 1.231 4.545 1.231 1.705 0 3.22-.378 4.545-1.23a7.987 7.987 0 003.314-3.315c.853-1.42 1.231-3.03 1.231-4.734 0-2.557-.852-4.735-2.65-6.629-1.8-1.799-3.978-2.745-6.44-2.745zM105.2 36.834v-32.1h2.935v12.973c1.231-1.515 2.652-2.746 4.167-3.504a11.863 11.863 0 015.113-1.136c3.314 0 6.06 1.231 8.427 3.598 2.273 2.368 3.409 5.303 3.409 8.617 0 3.409-1.136 6.25-3.503 8.617-2.273 2.367-5.114 3.598-8.428 3.598-1.894 0-3.598-.473-5.113-1.231-1.515-.852-2.84-1.988-4.072-3.693v4.261H105.2zm11.93-2.272c1.61 0 3.126-.38 4.546-1.231a7.697 7.697 0 003.314-3.41c.852-1.514 1.23-3.03 1.23-4.639 0-1.704-.378-3.22-1.23-4.734-.852-1.515-1.894-2.652-3.314-3.504-1.42-.852-2.936-1.23-4.545-1.23-1.61 0-3.22.378-4.64 1.23a9.792 9.792 0 00-3.409 3.409c-.757 1.326-1.136 2.935-1.136 4.734 0 2.652.852 4.924 2.651 6.723 1.705 1.8 3.882 2.652 6.534 2.652zM134.08 4.734h2.936v32.1h-2.936zM162.298 29.164l2.556 1.326c-.852 1.61-1.799 2.935-2.935 3.977a10.784 10.784 0 01-3.598 2.178c-1.326.568-2.841.852-4.545.852-3.788 0-6.818-1.231-8.901-3.788-2.178-2.462-3.22-5.207-3.22-8.332 0-2.936.947-5.587 2.746-7.86 2.273-2.935 5.303-4.45 9.185-4.45 3.882 0 7.102 1.515 9.47 4.545 1.609 2.083 2.461 4.735 2.556 7.954H144.78c0 2.651.852 4.83 2.557 6.534 1.61 1.799 3.693 2.651 6.154 2.651 1.137 0 2.273-.19 3.41-.663a8.256 8.256 0 002.84-1.61c.852-.662 1.61-1.799 2.557-3.314zm0-6.25c-.38-1.514-.947-2.84-1.705-3.787-.757-.947-1.799-1.704-3.03-2.272-1.23-.568-2.556-.852-3.977-.852-2.272 0-4.166.662-5.87 2.177-1.137 1.042-2.084 2.652-2.652 4.735h17.234zM192.693 18.56l-2.367 1.42c-1.989-2.747-4.83-4.072-8.333-4.072-2.84 0-5.208.947-7.007 2.746-1.894 1.799-2.84 3.977-2.84 6.628 0 1.704.473 3.22 1.325 4.735a8.905 8.905 0 003.503 3.503c1.515.758 3.125 1.231 5.019 1.231 3.409 0 6.155-1.42 8.333-4.072l2.367 1.515c-1.136 1.705-2.557 2.936-4.45 3.883-1.894.947-3.977 1.42-6.345 1.42-3.693 0-6.723-1.231-9.185-3.504-2.367-2.367-3.598-5.207-3.598-8.522 0-2.272.568-4.355 1.705-6.25a12.574 12.574 0 014.64-4.544c1.988-1.042 4.166-1.61 6.628-1.61 1.515 0 3.03.284 4.45.758 1.42.473 2.651 1.041 3.598 1.799a8.575 8.575 0 012.557 2.935zM196.954 4.734h2.935v13.162c1.231-1.61 2.557-2.84 3.977-3.598 1.515-.757 3.03-1.23 4.735-1.23 1.704 0 3.22.473 4.64 1.325 1.325.947 2.272 2.083 2.935 3.598.663 1.42.947 3.788.947 6.912v11.931h-2.936V25.85c0-2.746-.094-4.45-.378-5.397-.38-1.515-1.042-2.651-1.989-3.409-.947-.852-2.272-1.23-3.787-1.23-1.8 0-3.41.662-4.83 1.798-1.515 1.231-2.462 2.652-2.84 4.45-.284 1.137-.474 3.22-.474 6.345v8.427h-2.935v-32.1zM245.814 13.73v23.104h-2.936v-3.977a14.43 14.43 0 01-4.166 3.504 11.863 11.863 0 01-5.113 1.136c-3.314 0-6.06-1.231-8.428-3.598-2.272-2.367-3.503-5.303-3.503-8.712 0-3.314 1.23-6.154 3.598-8.522 2.273-2.367 5.113-3.598 8.427-3.598 1.894 0 3.599.474 5.114 1.231 1.61.852 2.935 2.083 4.071 3.693V13.73h2.936zm-11.931 2.273c-1.61 0-3.125.378-4.545 1.23-1.42.758-2.557 1.894-3.41 3.41-.757 1.514-1.23 3.03-1.23 4.64 0 1.703.473 3.219 1.326 4.734.757 1.515 1.893 2.65 3.314 3.503 1.42.758 2.935 1.231 4.545 1.231 1.61 0 3.22-.473 4.64-1.231 1.515-.852 2.556-1.988 3.408-3.409.758-1.325 1.137-2.935 1.137-4.734 0-2.652-.853-4.924-2.652-6.723-1.704-1.8-3.882-2.651-6.533-2.651zM254.146 4.166c.663 0 1.231.19 1.705.758.473.473.757 1.041.757 1.704s-.284 1.231-.757 1.705c-.474.473-1.042.757-1.705.757s-1.23-.284-1.799-.757c-.473-.474-.663-1.042-.663-1.705s.19-1.23.663-1.704c.568-.568 1.136-.758 1.8-.758zm-1.515 9.564h2.936v23.104h-2.936V13.73zM261.816 13.73h3.125v3.314c.852-1.326 1.799-2.272 2.84-2.935 1.042-.663 2.084-1.042 3.125-1.042.853 0 1.705.284 2.652.852l-1.515 2.462c-.663-.284-1.137-.378-1.61-.378-.947 0-1.894.378-2.84 1.23-.948.853-1.61 2.084-2.179 3.788-.284 1.326-.473 3.977-.473 8.049v7.764h-3.125V13.73zM288.992 16.192l-1.988 1.988c-1.516-1.515-3.125-2.272-4.64-2.272-.947 0-1.8.284-2.462.947-.758.663-1.042 1.42-1.042 2.272 0 .758.284 1.42.852 2.083.569.758 1.705 1.515 3.599 2.462 2.177 1.137 3.693 2.273 4.545 3.314.757 1.137 1.136 2.273 1.136 3.693 0 1.894-.663 3.504-1.988 4.83-1.326 1.325-3.03 1.988-5.019 1.988-1.326 0-2.651-.284-3.882-.947-1.137-.568-2.178-1.326-3.03-2.367l1.893-2.083c1.515 1.704 3.125 2.556 4.83 2.556 1.23 0 2.272-.378 3.124-1.136.853-.757 1.231-1.704 1.231-2.746 0-.852-.284-1.61-.852-2.272-.568-.663-1.799-1.516-3.693-2.462-2.178-1.042-3.598-2.178-4.355-3.22-.758-1.041-1.042-2.272-1.042-3.598 0-1.704.568-3.22 1.799-4.356 1.136-1.136 2.651-1.799 4.545-1.799 2.083 0 4.261 1.042 6.439 3.125z"/><path d="M34.751 15.245c-.568 0-1.042.379-1.042.947 0 .284.19.473.284.663-1.136.947-3.408 1.515-4.45.19-.757-.948-.852-1.99-.757-2.747.094.095.189.095.189.095a1.05 1.05 0 001.042-1.042c0-.473-.474-.947-1.042-.947-.473 0-.947.474-.947.947 0 .379.19.758.474.852-1.516 1.42-3.977 1.894-5.587.38a6.796 6.796 0 01-1.8-3.126c.569-.094.948-.568.948-1.136s-.474-1.136-1.042-1.136c-.663 0-1.136.568-1.136 1.136s.379 1.042.947 1.136c-1.231 3.22-1.989 3.883-4.261 4.072-1.989.19-3.03-.947-3.314-1.23.378-.19.568-.569.568-.948 0-.473-.474-.947-.947-.947-.568 0-1.042.474-1.042.947a1.05 1.05 0 001.042 1.042c-.095 2.462-1.326 2.935-2.178 3.314-.947.284-3.03-.758-3.03-.758.284-.094.379-.378.379-.662 0-.569-.38-.947-.853-.947-.568 0-.947.378-.947.947 0 .473.38.852.947.852h.19s.379.852.852 2.083c2.84.095 4.072-.568 5.113-2.651 2.652 1.23 5.019.757 7.007-1.705 1.705 2.367 5.303 2.652 7.102 1.326.568 2.178 3.03 2.462 3.03 2.462s-.663 1.894-1.231 3.125c-.757-.663-5.87-1.231-8.143-1.231-2.273 0-10.984.473-10.7 3.598.284 5.113 15.718 3.314 15.718 3.314l-.378-.663s-5.019.19-6.345.19c-1.325 0-7.385-.758-7.67-2.178-.378-1.515 5.303-2.178 7.954-2.273 2.652-.19 7.954.19 10.416 1.136 1.326.568 1.515-.473 1.515-.473l2.84-6.06h.285c.568 0 .947-.379.947-.947s-.379-.947-.947-.947z"/><path d="M22.536 1.894c5.87.19 11.552 1.23 16.95 3.22-.285 8.332-.663 14.487-1.326 19.126-.758 4.83-1.705 8.238-3.125 10.795-1.23 2.273-2.935 3.788-5.303 5.208-2.367 1.326-5.302 2.367-9.09 3.598-3.693-1.23-6.628-2.272-8.995-3.598-2.367-1.326-3.977-2.935-5.303-5.208-1.42-2.462-2.367-5.965-3.03-10.795-.663-4.64-1.136-10.7-1.42-19.127 5.87-2.083 12.025-3.22 18.37-3.22h2.272zM21.21 0h-.946C14.204 0 7.29.947 0 3.882c.947 35.509 5.019 36.55 20.737 42.042v-.094c15.624-5.398 19.695-6.534 20.642-42.042A55.346 55.346 0 0021.21 0z"/></g></svg>