<svg width="254" height="34" viewBox="0 0 254 34" xmlns="http://www.w3.org/2000/svg"><path d="M168.708 22.245l21.025-13.65L191 .632h-42.43l-1.394 8.974C145.276 4.55 139.576 0 124.505 0h-2.154c-13.425 0-20.011 3.539-23.305 7.963C98.92 2.654 94.106.632 87.647.632h-35.21l-1.394 8.342C50.283 4.171 46.61.632 36.351.632H5.193L0 33.368h16.339l1.393-8.974h16.846c8.612 0 12.919-2.654 15.072-6.446l-2.533 15.42h16.465l1.647-10.49h8.992c4.56 0 5.953 2.022 5.447 5.308l-.38 2.149-.254 1.77v.125l-.253 1.138h16.592l1.014-6.572.126-1.138c.127-.632.127-1.138.127-1.643 1.9 5.308 7.726 9.985 22.672 9.985h2.153c13.172 0 19.632-3.413 22.925-7.71l-1.14 7.078h42.684l1.773-11.123h-18.999zM30.667 14H19l.641-4h11.667C33.23 10 34 10.706 34 11.765 34 13.059 33.103 14 30.667 14zM78.9 14H67l.62-4h11.653c1.983 0 2.727.727 2.727 1.697 0 .97-.62 2.303-3.1 2.303zM90 16.8c2.125-.382 4.375-1.273 6-2.8-.125.51-.125.89-.25 1.273-.125 1.272-.25 2.545-.25 3.436 0 .764 0 1.527.125 2.291-.875-2.036-3-3.436-5.625-4.2zm40.876 1.2c-.497 3-2.731 6-9.435 6-6.33 0-8.441-2.875-8.441-5.625 0-.5.124-1.125.124-1.625.497-2.75 2.607-5.75 9.435-5.75 6.455 0 8.441 2.75 8.441 5.5 0 .375 0 1-.124 1.5zM145 25c1.242-2.204 1.863-4.667 2.236-6.87.124-1.037.248-2.593.248-3.63 0-1.167 0-2.333-.248-3.5H165l-20 14zm85.493-17.134c4.184 0 4.564 1.395 4.564 2.664h18.894C254.33 6.09 252.936 0 234.17 0h-5.453c-12.68 0-18.766 1.903-21.048 6.343l1.014-5.836h-16.484L187 33.366h16.357l1.141-6.724c1.395 3.679 5.96 7.358 19.655 7.358h5.579c18.132 0 22.317-4.694 23.204-10.53 0-.634.127-1.522.127-2.283 0-5.963-4.057-8.754-16.104-9.262l-5.325-.253c-5.072-.381-6.087-.888-6.087-2.03 0-1.269 1.015-1.776 4.946-1.776zm-3.574 13.253c5.32.386 6.081 1.156 6.081 2.44 0 1.157-.887 2.441-5.068 2.441-4.688 0-4.814-2.183-4.814-3.596H205L206.647 12c.634 4.495 3.928 8.22 14.824 8.862l5.448.257z" fill="#FFF" fill-rule="nonzero"/></svg>